<?xml version="1.0" encoding="UTF-8"?>
<svg xmlns="http://www.w3.org/2000/svg" width="80" height="80" viewBox="0 0 80 80" fill="none">
  <path d="M40.8538 20.4069H61.2244V23.81C61.2244 47.632 51.0391 61.2281 23.895 61.2281H20.5V40.8092H23.895C35.7695 40.8092 40.8704 35.7128 40.8704 23.7935V20.3903L40.8538 20.4069Z" fill="#48E054"></path>
  <path d="M20.3704 20.4032H0V40.8221H20.3704V20.4032Z" fill="#48E054"></path>
  <path d="M40.7221 0H20.3516V20.4189H40.7221V0Z" fill="#48E054"></path>
  <path d="M81.6328 48.4909H89.1217C90.6289 48.4909 91.983 48.1565 93.1841 47.4877C94.3851 46.8189 95.3153 45.8754 95.9747 44.6572C96.6577 43.439 96.9991 42.0656 96.9991 40.5369V5.10205H104.17V41.0026C104.17 43.7256 103.546 46.174 102.298 48.3476C101.05 50.4973 99.3306 52.1932 97.1404 53.4353C94.9503 54.6535 92.4893 55.2626 89.7575 55.2626H81.6328V48.4909Z" fill="black"></path>
  <path d="M146.093 55.2626H139.452V39.677H141.748C141.748 42.9971 141.183 45.8993 140.052 48.3834C138.922 50.8675 137.297 52.7784 135.178 54.116C133.082 55.4537 130.609 56.1225 127.759 56.1225C125.169 56.1225 122.885 55.5611 120.906 54.4385C118.928 53.292 117.374 51.6319 116.243 49.4583C115.137 47.2847 114.583 44.6691 114.583 41.6117V18.5737H121.472V40.716C121.472 42.6747 121.801 44.3586 122.461 45.7679C123.144 47.1533 124.109 48.2162 125.357 48.9567C126.605 49.6733 128.089 50.0315 129.808 50.0315C131.669 50.0315 133.305 49.6135 134.718 48.7775C136.155 47.9415 137.262 46.7711 138.039 45.2663C138.84 43.7615 139.24 42.0417 139.24 40.1069V18.5737H146.093V55.2626Z" fill="black"></path>
  <path d="M157.14 18.5737H163.781V34.1593H161.45C161.45 30.8392 162.015 27.937 163.146 25.4529C164.3 22.9687 165.924 21.0579 168.02 19.7203C170.116 18.3826 172.589 17.7138 175.439 17.7138C178.029 17.7138 180.313 18.2871 182.292 19.4336C184.27 20.5563 185.812 22.2044 186.919 24.378C188.05 26.5516 188.615 29.1672 188.615 32.2246V55.2626H181.762V33.1203C181.762 31.1616 181.42 29.4896 180.737 28.1042C180.078 26.695 179.124 25.632 177.876 24.9155C176.628 24.175 175.144 23.8048 173.425 23.8048C171.565 23.8048 169.916 24.2228 168.48 25.0588C167.067 25.8948 165.96 27.0652 165.159 28.57C164.382 30.0748 163.993 31.7946 163.993 33.7294V55.2626H157.14V18.5737Z" fill="black"></path>
  <path d="M198.675 18.5737H205.528V55.2626H198.675V18.5737ZM198.11 7.03681H206.128V14.5609H198.11V7.03681Z" fill="black"></path>
  <path d="M232.09 56.1225C228.629 56.1225 225.496 55.2984 222.694 53.6503C219.892 52.0021 217.69 49.7091 216.088 46.7711C214.487 43.8331 213.686 40.5249 213.686 36.8465C213.686 33.2636 214.499 30.0151 216.124 27.101C217.749 24.163 219.962 21.87 222.765 20.2219C225.567 18.5498 228.676 17.7138 232.09 17.7138C235.599 17.7138 238.708 18.526 241.416 20.1502C244.124 21.7506 246.232 24.0078 247.739 26.9219C249.247 29.836 250 33.1561 250 36.8823V38.5305H220.575L220.61 37.1331C220.633 39.6889 221.128 41.9581 222.093 43.9406C223.083 45.9232 224.448 47.4638 226.191 48.5626C227.934 49.6613 229.9 50.2107 232.09 50.2107C234.069 50.2107 235.835 49.8046 237.389 48.9925C238.967 48.1804 240.262 47.0458 241.275 45.5888H248.834C247.963 47.7624 246.727 49.6374 245.125 51.2139C243.524 52.7904 241.616 54.0086 239.403 54.8684C237.189 55.7045 234.752 56.1225 232.09 56.1225ZM220.575 33.4786H243.147V36.524C243.147 33.9921 242.688 31.7468 241.769 29.7882C240.851 27.8057 239.544 26.265 237.848 25.1663C236.176 24.0675 234.257 23.5181 232.09 23.5181C229.877 23.5181 227.899 24.0556 226.156 25.1304C224.413 26.1814 223.047 27.6743 222.058 29.609C221.093 31.5199 220.61 33.7055 220.61 36.1657L220.575 33.4786Z" fill="black"></path>
  <path d="M83 75.2477H85.4557V89.6972H83V75.2477ZM89.0873 89.945C88.2063 89.945 87.4328 89.7523 86.7669 89.367C86.1078 88.9817 85.591 88.4381 85.2164 87.7362C84.8487 87.0344 84.6614 86.219 84.6545 85.2901H85.3829V83.5356H84.6545C84.6614 82.6067 84.8487 81.7913 85.2164 81.0894C85.591 80.3876 86.1078 79.844 86.7669 79.4587C87.4328 79.0734 88.2063 78.8807 89.0873 78.8807C90.0308 78.8807 90.8771 79.1181 91.6263 79.5929C92.3755 80.0608 92.9583 80.7179 93.3745 81.5642C93.7977 82.4037 94.0092 83.3532 94.0092 84.4128C94.0092 85.4725 93.7977 86.4255 93.3745 87.2718C92.9513 88.1112 92.3651 88.7683 91.6159 89.2431C90.8737 89.711 90.0308 89.945 89.0873 89.945ZM88.4838 87.7775C89.0735 87.7775 89.5938 87.6365 90.0447 87.3544C90.5025 87.0654 90.8563 86.6697 91.106 86.1674C91.3627 85.6583 91.4911 85.0734 91.4911 84.4128C91.4911 83.7523 91.3627 83.1709 91.106 82.6686C90.8563 82.1594 90.5025 81.7638 90.0447 81.4817C89.5938 81.1927 89.0735 81.0482 88.4838 81.0482C87.8942 81.0482 87.3669 81.1927 86.9021 81.4817C86.4443 81.7638 86.087 82.1594 85.8304 82.6686C85.5737 83.1709 85.4453 83.7523 85.4453 84.4128C85.4453 85.0734 85.5737 85.6583 85.8304 86.1674C86.087 86.6697 86.4443 87.0654 86.9021 87.3544C87.3669 87.6365 87.8942 87.7775 88.4838 87.7775Z" fill="black"></path>
  <path d="M95.6429 90.8429H97.3078C97.5298 90.8429 97.731 90.781 97.9114 90.6571C98.0917 90.5401 98.2374 90.3716 98.3484 90.1514L98.7855 89.2328L94.696 79.1284H97.2454L100.034 86.4048L102.646 79.1284H105.143L100.534 90.75C100.27 91.4312 99.8711 91.9748 99.337 92.3807C98.8028 92.7936 98.1715 93 97.4431 93H95.6429V90.8429Z" fill="black"></path>
  <path d="M110.707 87.3337H112.84C113.27 87.3337 113.652 87.2408 113.985 87.055C114.325 86.8693 114.588 86.6078 114.776 86.2706C114.963 85.9335 115.057 85.5516 115.057 85.125V75.2477H117.648V85.3005C117.648 86.1399 117.45 86.8933 117.055 87.5608C116.666 88.2282 116.129 88.7511 115.442 89.1296C114.762 89.508 113.992 89.6972 113.132 89.6972H110.707V87.3337Z" fill="black"></path>
  <path d="M120.827 75.2477H131.16V77.5287H123.356V81.3165H130.452V83.5459H123.356V87.4163H131.368V89.6972H120.827V75.2477Z" fill="black"></path>
  <path d="M132.791 75.2477H144.383V77.57H139.888V89.6972H137.307V77.57H132.791V75.2477Z" fill="black"></path>
  <path d="M152.729 75.2477C153.624 75.2477 154.422 75.4094 155.122 75.7328C155.823 76.0562 156.368 76.5069 156.756 77.0849C157.151 77.656 157.349 78.3096 157.349 79.0459C157.349 79.6858 157.196 80.2534 156.891 80.7489C156.593 81.2443 156.173 81.6296 155.632 81.9048C155.098 82.18 154.481 82.3177 153.78 82.3177V81.9874C154.55 81.9874 155.233 82.1456 155.83 82.4622C156.426 82.7787 156.891 83.219 157.224 83.7833C157.557 84.3475 157.724 84.9839 157.724 85.6927C157.724 86.4633 157.516 87.1548 157.099 87.7672C156.69 88.3727 156.114 88.8475 155.372 89.1915C154.637 89.5287 153.797 89.6972 152.854 89.6972H146.496V75.2477H152.729ZM149.025 87.6537H152.573C153.065 87.6537 153.499 87.5677 153.874 87.3956C154.255 87.2167 154.55 86.969 154.758 86.6525C154.966 86.3291 155.07 85.9541 155.07 85.5275C155.07 85.1009 154.963 84.7225 154.748 84.3922C154.54 84.0619 154.248 83.8039 153.874 83.6181C153.499 83.4323 153.065 83.3394 152.573 83.3394H149.025V87.6537ZM152.448 81.3578C152.899 81.3578 153.294 81.2752 153.634 81.1101C153.981 80.9381 154.248 80.6972 154.436 80.3876C154.63 80.078 154.727 79.7202 154.727 79.3142C154.727 78.9083 154.63 78.5539 154.436 78.2511C154.248 77.9484 153.981 77.7144 153.634 77.5493C153.287 77.3773 152.892 77.2913 152.448 77.2913H149.025V81.3578H152.448Z" fill="black"></path>
  <path d="M165.022 83.3291H167.863L171.723 89.6972H168.747L165.022 83.3291ZM160.214 75.2477H166.395C167.394 75.2477 168.272 75.43 169.028 75.7947C169.784 76.1594 170.367 76.6755 170.776 77.3429C171.192 78.0103 171.401 78.781 171.401 79.6548C171.401 80.5356 171.189 81.3131 170.766 81.9874C170.35 82.6548 169.756 83.1743 168.986 83.5459C168.223 83.9174 167.332 84.1032 166.312 84.1032H162.805V89.6972H160.214V75.2477ZM166.239 81.9358C166.746 81.9358 167.183 81.8429 167.55 81.6571C167.925 81.4713 168.213 81.2099 168.414 80.8727C168.622 80.5287 168.726 80.1261 168.726 79.6651C168.726 79.211 168.622 78.8154 168.414 78.4782C168.213 78.1411 167.925 77.883 167.55 77.7041C167.183 77.5183 166.746 77.4255 166.239 77.4255H162.805V81.9358H166.239Z" fill="black"></path>
  <path d="M177.835 75.2477H180.634L186.086 89.6972H183.464L182.226 86.2294H176.378L175.233 89.6972H172.548L177.835 75.2477ZM181.529 84.2064L179.437 78.4163L179.208 77.5183L178.99 78.4163L177.023 84.2064H181.529Z" fill="black"></path>
  <path d="M187.956 75.2477H190.61V89.6972H187.956V75.2477Z" fill="black"></path>
  <path d="M193.87 75.2477H196.461L203.36 85.8578V75.2477H205.785V89.6972H203.183L196.295 79.0872V89.6972H193.87V75.2477Z" fill="black"></path>
  <path d="M213.683 89.945C212.642 89.945 211.719 89.7592 210.915 89.3876C210.11 89.0092 209.479 88.4828 209.021 87.8085C208.57 87.1342 208.341 86.3567 208.334 85.4759H210.936C210.936 85.9232 211.054 86.3188 211.289 86.6628C211.525 87 211.851 87.2649 212.268 87.4576C212.691 87.6502 213.176 87.7466 213.724 87.7466C214.252 87.7466 214.713 87.6606 215.108 87.4885C215.511 87.3096 215.819 87.0654 216.034 86.7557C216.256 86.4392 216.367 86.078 216.367 85.672C216.367 85.1697 216.215 84.7569 215.91 84.4335C215.604 84.1032 215.185 83.8727 214.65 83.742L212.111 83.1743C211.425 83.0161 210.825 82.7546 210.311 82.3899C209.798 82.0252 209.399 81.5745 209.115 81.0378C208.83 80.5011 208.688 79.8991 208.688 79.2317C208.688 78.4197 208.9 77.6938 209.323 77.0539C209.746 76.414 210.336 75.9117 211.092 75.547C211.848 75.1823 212.705 75 213.662 75C214.64 75 215.511 75.1789 216.274 75.5367C217.037 75.8876 217.63 76.3796 218.053 77.0126C218.476 77.6388 218.691 78.3578 218.698 79.1697H216.097C216.097 78.7913 215.996 78.4507 215.795 78.1479C215.601 77.8452 215.32 77.6112 214.952 77.4461C214.591 77.281 214.172 77.1984 213.693 77.1984C213.221 77.1984 212.805 77.2775 212.444 77.4358C212.084 77.594 211.803 77.8177 211.602 78.1067C211.4 78.3956 211.3 78.7328 211.3 79.1181C211.3 79.5516 211.442 79.9094 211.726 80.1915C212.011 80.4667 212.399 80.6697 212.892 80.8005L215.348 81.3475C216.055 81.5057 216.686 81.7844 217.241 82.1835C217.796 82.5826 218.227 83.0711 218.532 83.6491C218.844 84.2271 219 84.8601 219 85.5482C219 86.3807 218.775 87.1307 218.324 87.7982C217.88 88.4656 217.252 88.992 216.44 89.3773C215.635 89.7557 214.716 89.945 213.683 89.945Z" fill="black"></path>
  <path d="M273.198 8.4H287.1V11.494H276.6V16.632H286.148V19.656H276.6V24.906H287.38V28H273.198V8.4Z" fill="black"></path>
  <path d="M297.057 8.4H300.823L308.159 28H304.631L302.965 23.296H295.097L293.557 28H289.945L297.057 8.4ZM302.027 20.552L299.213 12.698L298.905 11.48L298.611 12.698L295.965 20.552H302.027Z" fill="black"></path>
  <path d="M311.675 8.4H319.991C321.335 8.4 322.515 8.64733 323.533 9.142C324.55 9.63667 325.334 10.3367 325.885 11.242C326.445 12.1473 326.725 13.1927 326.725 14.378C326.725 15.5727 326.44 16.6273 325.871 17.542C325.311 18.4473 324.513 19.152 323.477 19.656C322.45 20.16 321.251 20.412 319.879 20.412H315.161V28H311.675V8.4ZM319.781 17.472C320.462 17.472 321.05 17.346 321.545 17.094C322.049 16.842 322.436 16.4873 322.707 16.03C322.987 15.5633 323.127 15.0173 323.127 14.392C323.127 13.776 322.987 13.2393 322.707 12.782C322.436 12.3247 322.049 11.9747 321.545 11.732C321.05 11.48 320.462 11.354 319.781 11.354H315.161V17.472H319.781Z" fill="black"></path>
  <path fill-rule="evenodd" clip-rule="evenodd" d="M323 2H274C265.163 2 258 9.16344 258 18C258 26.8366 265.163 34 274 34H323C331.837 34 339 26.8366 339 18C339 9.16345 331.837 2 323 2ZM274 0C264.059 0 256 8.05888 256 18C256 27.9411 264.059 36 274 36H323C332.941 36 341 27.9411 341 18C341 8.05888 332.941 0 323 0H274Z" fill="black"></path>
</svg>
